An out-of-the-way diner becomes the unlikely battleground for the survival of the human race. When God loses faith in humankind, he sends his legion of angels to bring on the Apocalypse. Humanity's only hope lies in a group of strangers trapped in a desert diner with the Archangel Michael (Bettany). 

Paul Bettany 	... 	Michael 
 	Lucas Black 	... 	Jeep Hanson 
 	Tyrese Gibson 	... 	Kyle Williams 
 	Adrianne Palicki 	... 	Charlie 
 	Charles S. Dutton 	... 	Percy Walker 
 	Jon Tenney 	... 	Howard Anderson 
 	Kevin Durand 	... 	Gabriel 
 	Willa Holland 	... 	Audrey Anderson 
 	Kate Walsh 	... 	Sandra Anderson 
 	Dennis Quaid 	... 	Bob Hanson 
 	Jeanette Miller 	... 	Gladys Foster 
 	Cameron Harlow 	... 	Minivan Boy 
 	Doug Jones 	... 	Ice Cream Man 
 	Josh Stamberg 	... 	Burton 
 	Yancey Arias 	... 	Estevezr

General
Complete name                    : Legion.2010.BluRay.1080p.x264[HinDi]-[SnowDoN-IcTv].mkv
Format                           : Matroska
File size                        : 1.27 GiB
Duration                         : 1h 40mn
Overall bit rate                 : 1 820 Kbps
Movie name                       : Legion.2010.BluRay.1080p.x264[HinDi]-[SnowDoN-IcTv]
Encoded date                     : UTC 2011-01-19 02:19:38
Writing application              : mkvmerge v4.4.0 ('Die Wiederkehr') built on Oct 31 2010 21:52:48
Writing library                  : libebml v1.0.0 + libmatroska v1.0.0

Video
ID                               : 1
Format                           : AVC
Format/Info                      : Advanced Video Codec
Format profile                   : High@L4.0
Format settings, CABAC           : Yes
Format settings, ReFrames        : 4 frames
Muxing mode                      : Container profile=Unknown@4.0
Codec ID                         : V_MPEG4/ISO/AVC
Duration                         : 1h 40mn
Bit rate                         : 1 399 Kbps
Width                            : 1 920 pixels
Height                           : 800 pixels
Display aspect ratio             : 2.40:1
Frame rate mode                  : Variable
Frame rate                       : 23.976 fps
Resolution                       : 8 bits
Colorimetry                      : 4:2:0
Scan type                        : Progressive
Bits/(Pixel*Frame)               : 0.038
Stream size                      : 1 001 MiB (77%)
Title                            : Legion.2010.BluRay.1080p.x264[HinDi]-[SnowDoN-IcTv]
Writing library                  : x264 core 106 r1732 b20059a
Encoding settings                : cabac=1 / ref=3 / deblock=1:0:0 / analyse=0x3:0x113 / me=hex / subme=7 / psy=1 / psy_rd=1.00:0.00 / mixed_ref=1 / me_range=16 / chroma_me=1 / trellis=1 / 8x8dct=1 / cqm=0 / deadzone=21,11 / fast_pskip=1 / chroma_qp_offset=-2 / threads=6 / sliced_threads=0 / nr=0 / decimate=1 / interlaced=0 / constrained_intra=0 / bframes=3 / b_pyramid=2 / b_adapt=1 / b_bias=0 / direct=1 / weightb=1 / open_gop=0 / weightp=2 / keyint=250 / keyint_min=23 / scenecut=40 / intra_refresh=0 / rc_lookahead=40 / rc=crf / mbtree=1 / crf=26.0 / qcomp=0.60 / qpmin=10 / qpmax=51 / qpstep=4 / ip_ratio=1.40 / aq=1:1.00
Language                         : Hindi

Audio
ID                               : 2
Format                           : AC-3
Format/Info                      : Audio Coding 3
Codec ID                         : A_AC3
Duration                         : 1h 40mn
Bit rate mode                    : Constant
Bit rate                         : 384 Kbps
Channel(s)                       : 6 channels
Channel positions                : Front: L C R, Surround: L R, LFE
Sampling rate                    : 48.0 KHz
Video delay                      : -42ms
Stream size                      : 275 MiB (21%)
Title                            : Legion.2010.BluRay.1080p.x264[HinDi]-[SnowDoN-IcTv]
Language                         : Hindi

 
http://img825.imageshack.us/img825/7803/19420759.jpg
 
http://img829.imageshack.us/img829/1272/54702096.jpg
 
http://img808.imageshack.us/img808/663/25595145.jpg
 
http://img84.imageshack.us/img84/2783/96840293.jpg
 
http://img810.imageshack.us/img810/5557/25658325.jpg